<svg width="93" height="26" viewBox="0 0 93 26" fill="none" xmlns="http://www.w3.org/2000/svg">
<g clip-path="url(#clip0_9_17)">
<path d="M13 0C20.1801 0 26 5.82075 26 13C26 20.1801 20.1801 26 13 26C5.81985 26 0 20.1801 0 13C0 5.82075 5.81994 0 13 0Z" fill="#3B5998"/>
<path d="M14.5828 8.94964H16.2582V6.47476H14.2887V6.48369C11.9024 6.56821 11.4133 7.90962 11.3702 9.31851H11.3653V10.5543H9.7403V12.978H11.3653V19.4747H13.8142V12.978H15.8202L16.2077 10.5543H13.815V9.80769C13.815 9.33154 14.1318 8.94964 14.5828 8.94964Z" fill="white"/>
</g>
<path d="M39.808 9.66V10.776H36.268V13.236H39.028V14.352H36.268V18H34.9V9.66H39.808ZM40.6198 14.664C40.6198 14 40.7558 13.412 41.0278 12.9C41.3078 12.388 41.6838 11.992 42.1558 11.712C42.6358 11.424 43.1638 11.28 43.7398 11.28C44.2598 11.28 44.7118 11.384 45.0958 11.592C45.4878 11.792 45.7998 12.044 46.0318 12.348V11.388H47.4118V18H46.0318V17.016C45.7998 17.328 45.4838 17.588 45.0838 17.796C44.6838 18.004 44.2278 18.108 43.7158 18.108C43.1478 18.108 42.6278 17.964 42.1558 17.676C41.6838 17.38 41.3078 16.972 41.0278 16.452C40.7558 15.924 40.6198 15.328 40.6198 14.664ZM46.0318 14.688C46.0318 14.232 45.9358 13.836 45.7438 13.5C45.5598 13.164 45.3158 12.908 45.0118 12.732C44.7078 12.556 44.3798 12.468 44.0278 12.468C43.6758 12.468 43.3478 12.556 43.0438 12.732C42.7398 12.9 42.4918 13.152 42.2998 13.488C42.1158 13.816 42.0238 14.208 42.0238 14.664C42.0238 15.12 42.1158 15.52 42.2998 15.864C42.4918 16.208 42.7398 16.472 43.0438 16.656C43.3558 16.832 43.6838 16.92 44.0278 16.92C44.3798 16.92 44.7078 16.832 45.0118 16.656C45.3158 16.48 45.5598 16.224 45.7438 15.888C45.9358 15.544 46.0318 15.144 46.0318 14.688ZM48.7526 14.688C48.7526 14.008 48.8886 13.412 49.1606 12.9C49.4406 12.38 49.8246 11.98 50.3126 11.7C50.8006 11.42 51.3606 11.28 51.9926 11.28C52.7926 11.28 53.4526 11.472 53.9726 11.856C54.5006 12.232 54.8566 12.772 55.0406 13.476H53.5646C53.4446 13.148 53.2526 12.892 52.9886 12.708C52.7246 12.524 52.3926 12.432 51.9926 12.432C51.4326 12.432 50.9846 12.632 50.6486 13.032C50.3206 13.424 50.1566 13.976 50.1566 14.688C50.1566 15.4 50.3206 15.956 50.6486 16.356C50.9846 16.756 51.4326 16.956 51.9926 16.956C52.7846 16.956 53.3086 16.608 53.5646 15.912H55.0406C54.8486 16.584 54.4886 17.12 53.9606 17.52C53.4326 17.912 52.7766 18.108 51.9926 18.108C51.3606 18.108 50.8006 17.968 50.3126 17.688C49.8246 17.4 49.4406 17 49.1606 16.488C48.8886 15.968 48.7526 15.368 48.7526 14.688ZM62.4639 14.532C62.4639 14.78 62.4479 15.004 62.4159 15.204H57.3639C57.4039 15.732 57.5999 16.156 57.9519 16.476C58.3039 16.796 58.7359 16.956 59.2479 16.956C59.9839 16.956 60.5039 16.648 60.8079 16.032H62.2839C62.0839 16.64 61.7199 17.14 61.1919 17.532C60.6719 17.916 60.0239 18.108 59.2479 18.108C58.6159 18.108 58.0479 17.968 57.5439 17.688C57.0479 17.4 56.6559 17 56.3679 16.488C56.0879 15.968 55.9479 15.368 55.9479 14.688C55.9479 14.008 56.0839 13.412 56.3559 12.9C56.6359 12.38 57.0239 11.98 57.5199 11.7C58.0239 11.42 58.5999 11.28 59.2479 11.28C59.8719 11.28 60.4279 11.416 60.9159 11.688C61.4039 11.96 61.7839 12.344 62.0559 12.84C62.3279 13.328 62.4639 13.892 62.4639 14.532ZM61.0359 14.1C61.0279 13.596 60.8479 13.192 60.4959 12.888C60.1439 12.584 59.7079 12.432 59.1879 12.432C58.7159 12.432 58.3119 12.584 57.9759 12.888C57.6399 13.184 57.4399 13.588 57.3759 14.1H61.0359ZM65.1782 12.372C65.4102 12.052 65.7262 11.792 66.1262 11.592C66.5342 11.384 66.9862 11.28 67.4822 11.28C68.0662 11.28 68.5942 11.42 69.0662 11.7C69.5382 11.98 69.9102 12.38 70.1822 12.9C70.4542 13.412 70.5902 14 70.5902 14.664C70.5902 15.328 70.4542 15.924 70.1822 16.452C69.9102 16.972 69.5342 17.38 69.0542 17.676C68.5822 17.964 68.0582 18.108 67.4822 18.108C66.9702 18.108 66.5142 18.008 66.1142 17.808C65.7222 17.608 65.4102 17.352 65.1782 17.04V18H63.8102V9.12H65.1782V12.372ZM69.1982 14.664C69.1982 14.208 69.1022 13.816 68.9102 13.488C68.7262 13.152 68.4782 12.9 68.1662 12.732C67.8622 12.556 67.5342 12.468 67.1822 12.468C66.8382 12.468 66.5102 12.556 66.1982 12.732C65.8942 12.908 65.6462 13.164 65.4542 13.5C65.2702 13.836 65.1782 14.232 65.1782 14.688C65.1782 15.144 65.2702 15.544 65.4542 15.888C65.6462 16.224 65.8942 16.48 66.1982 16.656C66.5102 16.832 66.8382 16.92 67.1822 16.92C67.5342 16.92 67.8622 16.832 68.1662 16.656C68.4782 16.472 68.7262 16.208 68.9102 15.864C69.1022 15.52 69.1982 15.12 69.1982 14.664ZM74.811 18.108C74.187 18.108 73.623 17.968 73.119 17.688C72.615 17.4 72.219 17 71.931 16.488C71.643 15.968 71.499 15.368 71.499 14.688C71.499 14.016 71.647 13.42 71.943 12.9C72.239 12.38 72.643 11.98 73.155 11.7C73.667 11.42 74.239 11.28 74.871 11.28C75.503 11.28 76.075 11.42 76.587 11.7C77.099 11.98 77.503 12.38 77.799 12.9C78.095 13.42 78.243 14.016 78.243 14.688C78.243 15.36 78.091 15.956 77.787 16.476C77.483 16.996 77.067 17.4 76.539 17.688C76.019 17.968 75.443 18.108 74.811 18.108ZM74.811 16.92C75.163 16.92 75.491 16.836 75.795 16.668C76.107 16.5 76.359 16.248 76.551 15.912C76.743 15.576 76.839 15.168 76.839 14.688C76.839 14.208 76.747 13.804 76.563 13.476C76.379 13.14 76.135 12.888 75.831 12.72C75.527 12.552 75.199 12.468 74.847 12.468C74.495 12.468 74.167 12.552 73.863 12.72C73.567 12.888 73.331 13.14 73.155 13.476C72.979 13.804 72.891 14.208 72.891 14.688C72.891 15.4 73.071 15.952 73.431 16.344C73.799 16.728 74.259 16.92 74.811 16.92ZM82.4633 18.108C81.8393 18.108 81.2753 17.968 80.7713 17.688C80.2673 17.4 79.8713 17 79.5833 16.488C79.2953 15.968 79.1513 15.368 79.1513 14.688C79.1513 14.016 79.2993 13.42 79.5953 12.9C79.8913 12.38 80.2953 11.98 80.8073 11.7C81.3193 11.42 81.8913 11.28 82.5233 11.28C83.1553 11.28 83.7273 11.42 84.2393 11.7C84.7513 11.98 85.1553 12.38 85.4513 12.9C85.7473 13.42 85.8953 14.016 85.8953 14.688C85.8953 15.36 85.7433 15.956 85.4393 16.476C85.1353 16.996 84.7193 17.4 84.1913 17.688C83.6713 17.968 83.0953 18.108 82.4633 18.108ZM82.4633 16.92C82.8153 16.92 83.1433 16.836 83.4473 16.668C83.7593 16.5 84.0113 16.248 84.2033 15.912C84.3953 15.576 84.4913 15.168 84.4913 14.688C84.4913 14.208 84.3993 13.804 84.2153 13.476C84.0313 13.14 83.7873 12.888 83.4833 12.72C83.1793 12.552 82.8513 12.468 82.4993 12.468C82.1473 12.468 81.8193 12.552 81.5153 12.72C81.2193 12.888 80.9833 13.14 80.8073 13.476C80.6313 13.804 80.5433 14.208 80.5433 14.688C80.5433 15.4 80.7233 15.952 81.0833 16.344C81.4513 16.728 81.9113 16.92 82.4633 16.92ZM89.8637 14.7L92.9117 18H91.0637L88.6157 15.156V18H87.2477V9.12H88.6157V14.28L91.0157 11.388H92.9117L89.8637 14.7Z" fill="black"/>
<defs>
<clipPath id="clip0_9_17">
<rect width="26" height="26" fill="white"/>
</clipPath>
</defs>
</svg>
