<svg width="73" height="22" viewBox="0 0 73 22" fill="none" xmlns="http://www.w3.org/2000/svg">
<path d="M36.936 9.06C36.72 8.644 36.42 8.332 36.036 8.124C35.652 7.908 35.208 7.8 34.704 7.8C34.152 7.8 33.66 7.924 33.228 8.172C32.796 8.42 32.456 8.772 32.208 9.228C31.968 9.684 31.848 10.212 31.848 10.812C31.848 11.412 31.968 11.944 32.208 12.408C32.456 12.864 32.796 13.216 33.228 13.464C33.66 13.712 34.152 13.836 34.704 13.836C35.448 13.836 36.052 13.628 36.516 13.212C36.98 12.796 37.264 12.232 37.368 11.52H34.236V10.428H38.832V11.496C38.744 12.144 38.512 12.74 38.136 13.284C37.768 13.828 37.284 14.264 36.684 14.592C36.092 14.912 35.432 15.072 34.704 15.072C33.92 15.072 33.204 14.892 32.556 14.532C31.908 14.164 31.392 13.656 31.008 13.008C30.632 12.36 30.444 11.628 30.444 10.812C30.444 9.996 30.632 9.264 31.008 8.616C31.392 7.968 31.908 7.464 32.556 7.104C33.212 6.736 33.928 6.552 34.704 6.552C35.592 6.552 36.38 6.772 37.068 7.212C37.764 7.644 38.268 8.26 38.58 9.06H36.936ZM43.0493 15.108C42.4253 15.108 41.8613 14.968 41.3573 14.688C40.8533 14.4 40.4573 14 40.1693 13.488C39.8813 12.968 39.7373 12.368 39.7373 11.688C39.7373 11.016 39.8853 10.42 40.1813 9.9C40.4773 9.38 40.8813 8.98 41.3933 8.7C41.9053 8.42 42.4773 8.28 43.1093 8.28C43.7413 8.28 44.3133 8.42 44.8253 8.7C45.3373 8.98 45.7413 9.38 46.0373 9.9C46.3333 10.42 46.4813 11.016 46.4813 11.688C46.4813 12.36 46.3293 12.956 46.0253 13.476C45.7213 13.996 45.3053 14.4 44.7773 14.688C44.2573 14.968 43.6813 15.108 43.0493 15.108ZM43.0493 13.92C43.4013 13.92 43.7293 13.836 44.0333 13.668C44.3453 13.5 44.5973 13.248 44.7893 12.912C44.9813 12.576 45.0773 12.168 45.0773 11.688C45.0773 11.208 44.9853 10.804 44.8013 10.476C44.6173 10.14 44.3733 9.888 44.0693 9.72C43.7653 9.552 43.4373 9.468 43.0853 9.468C42.7333 9.468 42.4053 9.552 42.1013 9.72C41.8053 9.888 41.5693 10.14 41.3933 10.476C41.2173 10.804 41.1293 11.208 41.1293 11.688C41.1293 12.4 41.3093 12.952 41.6693 13.344C42.0373 13.728 42.4973 13.92 43.0493 13.92ZM50.7016 15.108C50.0776 15.108 49.5136 14.968 49.0096 14.688C48.5056 14.4 48.1096 14 47.8216 13.488C47.5336 12.968 47.3896 12.368 47.3896 11.688C47.3896 11.016 47.5376 10.42 47.8336 9.9C48.1296 9.38 48.5336 8.98 49.0456 8.7C49.5576 8.42 50.1296 8.28 50.7616 8.28C51.3936 8.28 51.9656 8.42 52.4776 8.7C52.9896 8.98 53.3936 9.38 53.6896 9.9C53.9856 10.42 54.1336 11.016 54.1336 11.688C54.1336 12.36 53.9816 12.956 53.6776 13.476C53.3736 13.996 52.9576 14.4 52.4296 14.688C51.9096 14.968 51.3336 15.108 50.7016 15.108ZM50.7016 13.92C51.0536 13.92 51.3816 13.836 51.6856 13.668C51.9976 13.5 52.2496 13.248 52.4416 12.912C52.6336 12.576 52.7296 12.168 52.7296 11.688C52.7296 11.208 52.6376 10.804 52.4536 10.476C52.2696 10.14 52.0256 9.888 51.7216 9.72C51.4176 9.552 51.0896 9.468 50.7376 9.468C50.3856 9.468 50.0576 9.552 49.7536 9.72C49.4576 9.888 49.2216 10.14 49.0456 10.476C48.8696 10.804 48.7816 11.208 48.7816 11.688C48.7816 12.4 48.9616 12.952 49.3216 13.344C49.6896 13.728 50.1496 13.92 50.7016 13.92ZM58.1499 8.28C58.6619 8.28 59.1139 8.384 59.5059 8.592C59.9059 8.792 60.2179 9.044 60.4419 9.348V8.388H61.8219V15.108C61.8219 15.716 61.6939 16.256 61.4379 16.728C61.1819 17.208 60.8099 17.584 60.3219 17.856C59.8419 18.128 59.2659 18.264 58.5939 18.264C57.6979 18.264 56.9539 18.052 56.3619 17.628C55.7699 17.212 55.4339 16.644 55.3539 15.924H56.7099C56.8139 16.268 57.0339 16.544 57.3699 16.752C57.7139 16.968 58.1219 17.076 58.5939 17.076C59.1459 17.076 59.5899 16.908 59.9259 16.572C60.2699 16.236 60.4419 15.748 60.4419 15.108V14.004C60.2099 14.316 59.8939 14.58 59.4939 14.796C59.1019 15.004 58.6539 15.108 58.1499 15.108C57.5739 15.108 57.0459 14.964 56.5659 14.676C56.0939 14.38 55.7179 13.972 55.4379 13.452C55.1659 12.924 55.0299 12.328 55.0299 11.664C55.0299 11 55.1659 10.412 55.4379 9.9C55.7179 9.388 56.0939 8.992 56.5659 8.712C57.0459 8.424 57.5739 8.28 58.1499 8.28ZM60.4419 11.688C60.4419 11.232 60.3459 10.836 60.1539 10.5C59.9699 10.164 59.7259 9.908 59.4219 9.732C59.1179 9.556 58.7899 9.468 58.4379 9.468C58.0859 9.468 57.7579 9.556 57.4539 9.732C57.1499 9.9 56.9019 10.152 56.7099 10.488C56.5259 10.816 56.4339 11.208 56.4339 11.664C56.4339 12.12 56.5259 12.52 56.7099 12.864C56.9019 13.208 57.1499 13.472 57.4539 13.656C57.7659 13.832 58.0939 13.92 58.4379 13.92C58.7899 13.92 59.1179 13.832 59.4219 13.656C59.7259 13.48 59.9699 13.224 60.1539 12.888C60.3459 12.544 60.4419 12.144 60.4419 11.688ZM64.9868 6.12V15H63.6188V6.12H64.9868ZM72.8428 11.532C72.8428 11.78 72.8268 12.004 72.7948 12.204H67.7428C67.7828 12.732 67.9788 13.156 68.3308 13.476C68.6828 13.796 69.1148 13.956 69.6268 13.956C70.3628 13.956 70.8828 13.648 71.1868 13.032H72.6628C72.4628 13.64 72.0988 14.14 71.5708 14.532C71.0508 14.916 70.4028 15.108 69.6268 15.108C68.9948 15.108 68.4268 14.968 67.9228 14.688C67.4268 14.4 67.0348 14 66.7468 13.488C66.4668 12.968 66.3268 12.368 66.3268 11.688C66.3268 11.008 66.4628 10.412 66.7348 9.9C67.0148 9.38 67.4028 8.98 67.8988 8.7C68.4028 8.42 68.9788 8.28 69.6268 8.28C70.2508 8.28 70.8068 8.416 71.2948 8.688C71.7828 8.96 72.1628 9.344 72.4348 9.84C72.7068 10.328 72.8428 10.892 72.8428 11.532ZM71.4148 11.1C71.4068 10.596 71.2268 10.192 70.8748 9.888C70.5228 9.584 70.0868 9.432 69.5668 9.432C69.0948 9.432 68.6908 9.584 68.3548 9.888C68.0188 10.184 67.8188 10.588 67.7548 11.1H71.4148Z" fill="black"/>
<g clip-path="url(#clip0_9_17)">
<path d="M21.1695 9.0874L12.1959 9.08698C11.7996 9.08698 11.4785 9.40812 11.4785 9.80438V12.671C11.4785 13.0672 11.7996 13.3884 12.1959 13.3884H17.2492C16.6959 14.8245 15.6631 16.0272 14.3454 16.7913L16.5002 20.5214C19.9567 18.5224 22.0002 15.0149 22.0002 11.0885C22.0002 10.5294 21.959 10.1297 21.8765 9.67973C21.8139 9.33783 21.5171 9.0874 21.1695 9.0874Z" fill="#167EE6"/>
<path d="M11.0002 17.6956C8.52714 17.6956 6.36822 16.3444 5.2087 14.345L1.47876 16.4949C3.3769 19.7846 6.93274 22 11.0002 22C12.9955 22 14.8783 21.4627 16.5002 20.5265V20.5214L14.3454 16.7913C13.3598 17.3629 12.2192 17.6956 11.0002 17.6956Z" fill="#12B347"/>
<path d="M16.5 20.5265V20.5214L14.3452 16.7913C13.3596 17.3629 12.2192 17.6957 11 17.6957V22C12.9953 22 14.8782 21.4628 16.5 20.5265Z" fill="#0F993E"/>
<path d="M4.30435 11C4.30435 9.781 4.63702 8.64057 5.20854 7.65499L1.4786 5.5051C0.537195 7.12188 0 8.99953 0 11C0 13.0004 0.537195 14.8781 1.4786 16.4949L5.20854 14.345C4.63702 13.3594 4.30435 12.219 4.30435 11Z" fill="#FFD500"/>
<path d="M11.0002 4.30435C12.6128 4.30435 14.0941 4.87738 15.2511 5.83056C15.5366 6.06568 15.9515 6.04871 16.2129 5.78725L18.244 3.75611C18.5407 3.45946 18.5196 2.97387 18.2027 2.69895C16.2641 1.0172 13.7419 0 11.0002 0C6.93274 0 3.3769 2.21534 1.47876 5.50511L5.2087 7.65501C6.36822 5.65555 8.52714 4.30435 11.0002 4.30435Z" fill="#FF4B26"/>
<path d="M15.251 5.83056C15.5364 6.06568 15.9513 6.04871 16.2128 5.78725L18.2439 3.75611C18.5405 3.45946 18.5194 2.97387 18.2025 2.69895C16.264 1.01716 13.7417 0 11 0V4.30435C12.6126 4.30435 14.094 4.87738 15.251 5.83056Z" fill="#D93F21"/>
</g>
<defs>
<clipPath id="clip0_9_17">
<rect width="22" height="22" fill="white"/>
</clipPath>
</defs>
</svg>
