<svg width="93" height="42" viewBox="0 0 93 42" fill="none" xmlns="http://www.w3.org/2000/svg">
<path fill-rule="evenodd" clip-rule="evenodd" d="M22.4557 9.46889C23.3865 5.65652 21.0505 1.81144 17.2381 0.88067C13.4257 -0.050097 9.58064 2.28591 8.64987 6.09829C7.7191 9.91066 10.0551 13.7557 13.8675 14.6865C17.6799 15.6173 21.5249 13.2813 22.4557 9.46889ZM32.2493 19.9532C32.1109 17.3961 31.3646 14.9088 30.0725 12.6977C28.7804 10.4867 26.9796 8.61565 24.8196 7.23989C24.8409 7.43392 24.8564 7.62796 24.8681 7.822C25.006 10.3205 24.1458 12.7714 22.4766 14.6356C21.6501 15.5587 20.6499 16.3099 19.5331 16.8465C18.4163 17.383 17.2047 17.6943 15.9676 17.7626C13.4691 17.9005 11.0181 17.0402 9.15393 15.3711C7.28971 13.7019 6.16492 11.3605 6.027 8.86204C6.0173 8.668 6.01148 8.47397 6.01342 8.27993C4.02045 9.88558 2.43793 11.9422 1.39651 14.2801C0.355082 16.6179 -0.115388 19.1699 0.0239311 21.7254C0.163251 24.2809 0.908365 26.7667 2.19777 28.9775C3.48717 31.1882 5.28389 33.0606 7.4396 34.4401L7.42796 34.2577C7.29004 31.7592 8.15029 29.3083 9.81946 27.4441C11.4886 25.5799 13.83 24.4551 16.3285 24.3172C18.827 24.1792 21.2779 25.0395 23.1421 26.7087C25.0063 28.3778 26.1311 30.7192 26.269 33.2177V33.4117C28.2642 31.8056 29.8476 29.7468 30.8876 27.4061C31.9277 25.0654 32.3945 22.5105 32.2493 19.9532ZM18.5592 27.3135C22.3716 28.2443 24.7076 32.0893 23.7768 35.9017C22.8461 39.7141 19.001 42.0501 15.1886 41.1193C11.3762 40.1886 9.04022 36.3435 9.97099 32.5311C10.9018 28.7187 14.7468 26.3827 18.5592 27.3135Z" fill="#0057B7"/>
<path fill-rule="evenodd" clip-rule="evenodd" d="M49.7638 11.8058C49.1367 11.4738 48.4236 11.3078 47.6244 11.3078C46.8744 11.3078 46.1735 11.4923 45.5218 11.8611C44.8702 12.2177 44.3907 12.7034 44.0833 13.3182C43.739 12.6665 43.2472 12.1685 42.6078 11.8243C41.9684 11.48 41.243 11.3078 40.4315 11.3078C39.829 11.3078 39.2634 11.4247 38.7347 11.6583C38.206 11.8919 37.7695 12.2177 37.4252 12.6358V11.4738H35.3227V21.6361H37.4252V15.9556C37.4252 15.0457 37.6527 14.351 38.1076 13.8715C38.5749 13.3796 39.2019 13.1337 39.9888 13.1337C40.7758 13.1337 41.3967 13.3796 41.8516 13.8715C42.3066 14.351 42.534 15.0457 42.534 15.9556V21.6361H44.6181V15.9556C44.6181 15.0457 44.8456 14.351 45.3005 13.8715C45.7678 13.3796 46.3948 13.1337 47.1817 13.1337C47.9687 13.1337 48.5896 13.3796 49.0445 13.8715C49.4994 14.351 49.7269 15.0457 49.7269 15.9556V21.6361H51.811V15.642C51.811 14.7199 51.6266 13.9329 51.2577 13.2813C50.9011 12.6296 50.4032 12.1378 49.7638 11.8058ZM53.4905 9.74017C53.7487 9.99837 54.0684 10.1275 54.4496 10.1275C54.8184 10.1275 55.132 9.99837 55.3902 9.74017C55.6484 9.48196 55.7775 9.16228 55.7775 8.78112C55.7775 8.39995 55.6484 8.08027 55.3902 7.82206C55.132 7.56386 54.8184 7.43475 54.4496 7.43475C54.0684 7.43475 53.7487 7.56386 53.4905 7.82206C53.2323 8.08027 53.1032 8.39995 53.1032 8.78112C53.1032 9.16228 53.2323 9.48196 53.4905 9.74017ZM55.4824 21.6361V11.4738H53.3798V21.6361H55.4824ZM57.0625 13.7977C56.6444 14.5846 56.4354 15.4883 56.4354 16.5089C56.4354 17.5294 56.6444 18.4454 57.0625 19.2569C57.4928 20.0561 58.0707 20.6832 58.7961 21.1381C59.5339 21.5808 60.3454 21.8021 61.2306 21.8021C62.0176 21.8021 62.7123 21.6422 63.3147 21.3226C63.9295 21.0029 64.409 20.5971 64.7533 20.1053V21.6361H66.8743V7.98805H64.7533V12.894C64.3721 12.4144 63.8557 12.0333 63.2041 11.7505C62.5647 11.4554 61.913 11.3078 61.2491 11.3078C60.3515 11.3078 59.5339 11.5292 58.7961 11.9718C58.0707 12.4022 57.4928 13.0108 57.0625 13.7977ZM64.3107 14.7199C64.6058 15.2363 64.7533 15.8449 64.7533 16.5457C64.7533 17.2466 64.6058 17.8614 64.3107 18.3901C64.0279 18.9065 63.6529 19.2999 63.1856 19.5704C62.7184 19.841 62.2143 19.9762 61.6733 19.9762C61.1446 19.9762 60.6405 19.841 60.1609 19.5704C59.6937 19.2877 59.3125 18.8819 59.0174 18.3532C58.7346 17.8245 58.5932 17.2097 58.5932 16.5089C58.5932 15.808 58.7346 15.2055 59.0174 14.7014C59.3125 14.185 59.6937 13.7977 60.1609 13.5395C60.6282 13.269 61.1323 13.1337 61.6733 13.1337C62.2143 13.1337 62.7184 13.269 63.1856 13.5395C63.6529 13.81 64.0279 14.2034 64.3107 14.7199ZM68.4555 13.7977C68.0375 14.5846 67.8284 15.4883 67.8284 16.5089C67.8284 17.5294 68.0375 18.4454 68.4555 19.2569C68.8859 20.0561 69.4638 20.6832 70.1892 21.1381C70.9269 21.5808 71.7384 21.8021 72.6237 21.8021C73.4106 21.8021 74.1053 21.6422 74.7078 21.3226C75.3226 21.0029 75.8021 20.5971 76.1464 20.1053V21.6361H78.2674V7.98805H76.1464V12.894C75.7652 12.4144 75.2488 12.0333 74.5971 11.7505C73.9578 11.4554 73.3061 11.3078 72.6421 11.3078C71.7446 11.3078 70.9269 11.5292 70.1892 11.9718C69.4638 12.4022 68.8859 13.0108 68.4555 13.7977ZM75.7037 14.7199C75.9988 15.2363 76.1464 15.8449 76.1464 16.5457C76.1464 17.2466 75.9988 17.8614 75.7037 18.3901C75.4209 18.9065 75.0459 19.2999 74.5787 19.5704C74.1115 19.841 73.6073 19.9762 73.0663 19.9762C72.5376 19.9762 72.0335 19.841 71.554 19.5704C71.0868 19.2877 70.7056 18.8819 70.4105 18.3532C70.1277 17.8245 69.9863 17.2097 69.9863 16.5089C69.9863 15.808 70.1277 15.2055 70.4105 14.7014C70.7056 14.185 71.0868 13.7977 71.554 13.5395C72.0212 13.269 72.5253 13.1337 73.0663 13.1337C73.6073 13.1337 74.1115 13.269 74.5787 13.5395C75.0459 13.81 75.4209 14.2034 75.7037 14.7199ZM82.0249 21.6361V7.98805H79.9224V21.6361H82.0249ZM92.9188 17.265C92.968 16.9576 92.9926 16.6257 92.9926 16.2691C92.9926 15.2977 92.7836 14.4371 92.3655 13.687C91.9475 12.937 91.3634 12.353 90.6134 11.9349C89.8634 11.5169 89.0089 11.3078 88.0498 11.3078C87.0539 11.3078 86.1686 11.523 85.394 11.9534C84.6316 12.3837 84.0353 12.9985 83.605 13.7977C83.1869 14.5846 82.9779 15.5006 82.9779 16.5457C82.9779 17.5909 83.1931 18.513 83.6234 19.3122C84.066 20.0992 84.6685 20.7139 85.4309 21.1566C86.2055 21.5869 87.0785 21.8021 88.0498 21.8021C89.2425 21.8021 90.2384 21.507 91.0376 20.9168C91.8491 20.3143 92.4086 19.5459 92.716 18.6114H90.4474C89.9802 19.5582 89.181 20.0315 88.0498 20.0315C87.2506 20.0315 86.5805 19.7856 86.0395 19.2938C85.4985 18.7897 85.1972 18.1134 85.1358 17.265H92.9188ZM89.9679 13.7977C90.5089 14.2772 90.7856 14.9289 90.7979 15.7527H85.1542C85.2403 14.9289 85.5415 14.2772 86.0579 13.7977C86.5866 13.3182 87.2198 13.0784 87.9576 13.0784C88.7691 13.0784 89.4392 13.3182 89.9679 13.7977ZM49.7638 23.9351C49.1367 23.6031 48.4236 23.4371 47.6244 23.4371C46.8744 23.4371 46.1735 23.6216 45.5218 23.9904C44.8702 24.347 44.3907 24.8327 44.0833 25.4475C43.739 24.7958 43.2472 24.2978 42.6078 23.9535C41.9684 23.6093 41.243 23.4371 40.4315 23.4371C39.829 23.4371 39.2634 23.5539 38.7347 23.7876C38.206 24.0212 37.7695 24.347 37.4252 24.7651V23.6031H35.3227V33.7654H37.4252V28.0848C37.4252 27.175 37.6527 26.4803 38.1076 26.0008C38.5749 25.5089 39.2019 25.263 39.9888 25.263C40.7758 25.263 41.3967 25.5089 41.8516 26.0008C42.3066 26.4803 42.534 27.175 42.534 28.0848V33.7654H44.6181V28.0848C44.6181 27.175 44.8456 26.4803 45.3005 26.0008C45.7678 25.5089 46.3948 25.263 47.1817 25.263C47.9687 25.263 48.5896 25.5089 49.0445 26.0008C49.4994 26.4803 49.7269 27.175 49.7269 28.0848V33.7654H51.811V27.7713C51.811 26.8491 51.6266 26.0622 51.2577 25.4106C50.9011 24.7589 50.4032 24.2671 49.7638 23.9351ZM53.3061 25.927C52.888 26.7139 52.679 27.6176 52.679 28.6381C52.679 29.6587 52.888 30.5747 53.3061 31.3862C53.7364 32.1854 54.3143 32.8125 55.0397 33.2674C55.7652 33.7101 56.5644 33.9314 57.4374 33.9314C58.2243 33.9314 58.9251 33.7715 59.5399 33.4519C60.1547 33.1322 60.6404 32.7326 60.9969 32.253V33.7654H63.1179V23.6031H60.9969V25.0786C60.6404 24.6114 60.1608 24.224 59.5583 23.9167C58.9682 23.597 58.2735 23.4371 57.4743 23.4371C56.589 23.4371 55.7775 23.6585 55.0397 24.1011C54.3143 24.5314 53.7364 25.1401 53.3061 25.927ZM60.5543 26.8491C60.8494 27.3656 60.9969 27.9742 60.9969 28.675C60.9969 29.3759 60.8494 29.9907 60.5543 30.5194C60.2715 31.0358 59.8965 31.4292 59.4292 31.6997C58.962 31.9702 58.4579 32.1055 57.9169 32.1055C57.3882 32.1055 56.8841 31.9702 56.4045 31.6997C55.9373 31.4169 55.5562 31.0112 55.2611 30.4825C54.9783 29.9538 54.8369 29.339 54.8369 28.6381C54.8369 27.9373 54.9783 27.3348 55.2611 26.8307C55.5562 26.3143 55.9373 25.927 56.4045 25.6688C56.8718 25.3983 57.3759 25.263 57.9169 25.263C58.4579 25.263 58.962 25.3983 59.4292 25.6688C59.8965 25.9393 60.2715 26.3327 60.5543 26.8491ZM72.0396 23.9351C71.4125 23.6031 70.6994 23.4371 69.9001 23.4371C69.2977 23.4371 68.7259 23.5539 68.1849 23.7876C67.6562 24.0212 67.2197 24.347 66.8754 24.7651V23.6031H64.7729V33.7654H66.8754V28.0848C66.8754 27.175 67.1029 26.4803 67.5578 26.0008C68.0251 25.5089 68.6521 25.263 69.4391 25.263C70.226 25.263 70.8469 25.5089 71.3018 26.0008C71.7568 26.4803 71.9842 27.175 71.9842 28.0848V33.7654H74.0683V27.7713C74.0683 26.8491 73.89 26.0622 73.5335 25.4106C73.1769 24.7589 72.6789 24.2671 72.0396 23.9351Z" fill="#333333"/>
</svg>
