<svg xmlns="http://www.w3.org/2000/svg">
  <g id='home'>
    <svg width="18" height="18" viewBox="0 0 18 18" fill="none" xmlns="http://www.w3.org/2000/svg">
    <g clip-path="url(#clip0_108_749)">
    <path d="M15.75 9.75V17.25H11.25V12.75H6.75V17.25H2.25V9.75H0L9 0.75L18 9.75H15.75ZM15 5.31975V1.5H12.75V3.06975L15 5.31975Z" fill="currentColor"/>
    </g>
    <defs>
    <clipPath id="clip0_108_749">
    <rect width="18" height="18" fill="currentColor"/>
    </clipPath>
    </defs>
    </svg>
  </g>

  <g id='pages'>
    <svg width="18" height="18" viewBox="0 0 18 18" fill="none" xmlns="http://www.w3.org/2000/svg">
      <path d="M15.7486 6.3735H2.25161C1.82486 6.3735 1.50086 6.7215 1.50086 7.12275C1.50086 7.21125 1.42211 6.68626 2.77136 15.117C2.82911 15.4815 3.14336 15.7485 3.51236 15.7485H14.4886C14.8576 15.7485 15.1719 15.4815 15.2296 15.117C16.5804 6.67951 16.4994 7.212 16.4994 7.122C16.4994 6.7035 16.1574 6.3735 15.7486 6.3735ZM15.0256 4.11075H3.00311C2.61011 4.11075 2.25236 4.42725 2.25236 4.866C2.25236 4.92675 2.24486 4.878 2.35736 5.6235H15.6714C15.7854 4.8645 15.7756 4.92525 15.7756 4.86675C15.7756 4.43175 15.4239 4.11075 15.0256 4.11075ZM3.04586 3.36075H14.9829C15.0264 3.03375 15.0241 3.04125 15.0241 2.99925C15.0241 2.496 14.5929 2.2485 14.2734 2.2485H3.75536C3.35336 2.2485 3.00461 2.57325 3.00461 2.9985C3.00461 3.0405 3.00161 3.03075 3.04586 3.36075Z" fill="currentColor"/>
    </svg>
  </g>

  <g id='acc-setup'>
    <svg width="21" height="21" viewBox="0 0 21 21" fill="none" xmlns="http://www.w3.org/2000/svg">
      <path fill-rule="evenodd" clip-rule="evenodd" d="M9.9113 8.25944C11.7509 6.71563 12.1463 4.01799 10.8262 2.01063C9.67853 0.264129 7.55994 -0.444905 5.66585 0.284023C3.93433 0.948766 2.77235 2.69226 2.77498 4.62043C2.76774 5.45991 2.9865 6.28589 3.40835 7.01178C4.75354 9.37723 7.86554 9.97516 9.9113 8.25944ZM9.48552 16.1489C9.55874 16.0953 9.63263 16.0424 9.7066 15.9894C9.8397 15.8941 9.97303 15.7986 10.1031 15.6985C10.1407 15.6692 10.1838 15.5956 10.1714 15.5622C10.1589 15.5358 10.1407 15.5123 10.1182 15.4936C10.0957 15.4748 10.0694 15.4611 10.0412 15.4534C9.91286 15.425 9.7836 15.4013 9.6544 15.3776L9.65435 15.3776C9.52724 15.3543 9.40019 15.331 9.27414 15.3033C8.8927 15.2184 8.68508 14.9459 8.74853 14.5597C8.86116 13.8522 8.99106 13.1469 9.1326 12.4446C9.20431 12.088 9.50016 11.8988 9.86133 11.9499C10.0114 11.9707 10.1606 11.9981 10.3097 12.0256L10.3097 12.0256L10.3098 12.0256C10.4299 12.0477 10.55 12.0698 10.6704 12.0884C10.7185 12.0959 10.801 12.0794 10.8157 12.0486C10.8259 12.0216 10.8301 11.9926 10.828 11.9638C10.826 11.9349 10.8177 11.9069 10.8037 11.8816C10.7208 11.7501 10.6328 11.622 10.5448 11.4941C10.4997 11.4284 10.4546 11.3628 10.4102 11.2968C10.1099 10.8572 10.1707 10.5149 10.6013 10.2105C10.8656 10.0235 11.1304 9.8374 11.4221 9.63238L11.4225 9.63207L11.6244 9.49022C11.4747 9.41041 11.3296 9.33389 11.1877 9.25905C10.9293 9.12273 10.6814 8.99198 10.4354 8.85701C10.3025 8.78419 10.2075 8.80521 10.0873 8.89454C9.37687 9.43559 8.52652 9.76234 7.63648 9.83629C6.40618 9.94327 5.28362 9.62685 4.28608 8.89192C4.18058 8.81384 4.09836 8.79958 3.97259 8.85213C1.68392 9.80514 0.0297407 12.261 0.00533724 14.7684C-0.00196307 15.4941 -0.000210248 16.2199 0.00154241 16.9457C0.00231353 17.2651 0.00308462 17.5844 0.00308462 17.9037C0.00308462 17.9354 0.0059713 17.9673 0.00894184 18.0002L0.00894236 18.0002C0.0106413 18.019 0.0123675 18.038 0.0135969 18.0576H3.02348C3.00759 18.0175 2.99625 17.9759 2.98969 17.9333C2.98892 17.8128 2.9879 17.6922 2.98688 17.5717C2.98291 17.1044 2.97895 16.637 2.98969 16.1692C2.99382 15.9729 3.21495 15.8543 3.39929 15.926C3.56449 15.9909 3.59978 16.1335 3.59978 16.2938V18.0598H9.93341L9.76552 17.8132C9.60647 17.5797 9.45639 17.3593 9.30756 17.138C9.0624 16.7742 9.12735 16.412 9.48552 16.1489ZM19.8306 14.3232C19.5492 14.2657 19.2669 14.2173 18.9839 14.1689L18.9074 14.1558C18.7636 14.131 18.6697 14.0664 18.6502 13.9088C18.6358 13.7661 18.6079 13.6251 18.5669 13.4877C18.5177 13.3345 18.5669 13.2403 18.6904 13.1562C18.8071 13.0763 18.9223 12.9944 19.0376 12.9125L19.0377 12.9124C19.1883 12.8053 19.3389 12.6983 19.4927 12.5958C19.635 12.5009 19.6669 12.4179 19.558 12.2655C19.3872 12.0266 19.2256 11.7815 19.0639 11.5362L19.0638 11.5361C18.992 11.4272 18.9203 11.3184 18.8477 11.21C18.7673 11.0898 18.6866 10.9697 18.604 10.8468C18.5388 10.7499 18.4725 10.6512 18.4043 10.5494C18.3113 10.6117 18.2193 10.6725 18.1284 10.7326L18.1284 10.7326L18.1284 10.7326C17.9011 10.8828 17.6802 11.0288 17.4657 11.1838C17.2934 11.3076 17.1466 11.3429 16.9803 11.1838C16.9139 11.12 16.8359 11.0696 16.7505 11.0355C16.5523 10.9604 16.511 10.8212 16.5485 10.6298C16.5714 10.5123 16.5918 10.3943 16.6122 10.2763L16.6122 10.2761C16.6452 10.0859 16.6781 9.89571 16.7212 9.70789C16.7625 9.52923 16.7051 9.45191 16.5335 9.4215C16.1737 9.35763 15.8141 9.29213 15.4546 9.22663L15.4542 9.22656C15.218 9.18353 14.9818 9.1405 14.7456 9.09795C14.5148 9.05629 14.4757 9.08481 14.4355 9.31603L14.3849 9.60545L14.3848 9.60584C14.3466 9.82364 14.3084 10.0414 14.2715 10.2593C14.2471 10.4068 14.1667 10.4901 14.0165 10.513C13.881 10.5313 13.7467 10.5581 13.6145 10.5933C13.4665 10.6358 13.3655 10.5963 13.2818 10.4684C13.2062 10.3533 13.1282 10.2399 13.0501 10.1264L13.0501 10.1264L13.0501 10.1264C12.9432 9.97102 12.8364 9.81569 12.7359 9.65647C12.6454 9.51421 12.5602 9.48644 12.4202 9.58515C11.8991 9.95099 11.3757 10.3152 10.8501 10.6778C10.742 10.7529 10.7303 10.8279 10.8081 10.9375C10.9013 11.0701 10.9908 11.2054 11.0801 11.3405L11.0801 11.3405L11.0802 11.3405C11.1742 11.4827 11.2682 11.6247 11.3663 11.7633C11.4711 11.9112 11.4876 12.0399 11.3663 12.1867C11.2911 12.2771 11.2288 12.3775 11.1812 12.4851C11.1062 12.6555 10.9826 12.6908 10.8152 12.6566C10.6573 12.6246 10.4992 12.5945 10.341 12.5644L10.3408 12.5643C10.1918 12.536 10.0428 12.5076 9.89387 12.4776C9.74031 12.4468 9.6427 12.484 9.61341 12.6551C9.5099 13.2509 9.4029 13.846 9.29591 14.441L9.29587 14.4413L9.26764 14.5983C9.24886 14.7019 9.25863 14.7661 9.3904 14.786C9.64172 14.8244 9.89106 14.8763 10.1396 14.9281L10.2539 14.9519C10.6158 15.0266 10.6162 15.0288 10.6794 15.3836L10.6804 15.3892C10.6923 15.4664 10.7097 15.5427 10.7326 15.6174C10.7874 15.7848 10.7375 15.9019 10.5914 16.001C10.3778 16.15 10.1668 16.3048 9.95636 16.4591L9.95633 16.4592L9.79888 16.5745C9.72379 16.6301 9.64871 16.6871 9.72379 16.7997C9.96985 17.1634 10.215 17.5278 10.4627 17.8959L10.4637 17.8973L10.4641 17.8979C10.6166 18.1245 10.77 18.3525 10.9252 18.5826C10.9496 18.5695 10.9733 18.5574 10.9963 18.5457C11.046 18.5204 11.0922 18.4968 11.1351 18.4678C11.4065 18.2861 11.6768 18.1033 11.943 17.9157C12.0661 17.8289 12.1739 17.8203 12.2982 17.9157C12.413 18.0017 12.534 18.0792 12.6601 18.1476C12.7772 18.2144 12.8227 18.3023 12.7971 18.4381C12.7703 18.5809 12.7461 18.7247 12.7218 18.8687L12.7218 18.8688C12.6886 19.0657 12.6553 19.2629 12.6154 19.458C12.5824 19.619 12.6346 19.6929 12.7874 19.7181C12.9402 19.7432 13.0963 19.7695 13.2492 19.7999C13.5418 19.8576 13.8342 19.9163 14.1265 19.975L14.1274 19.9752L14.1342 19.9765C14.2979 20.0094 14.4617 20.0423 14.6255 20.075H14.8211C14.8401 19.9955 14.8628 19.916 14.8855 19.8366C14.9362 19.6595 14.9869 19.4823 14.9957 19.3029C15.019 18.8338 15.2003 18.5759 15.6985 18.5564C15.866 18.55 15.9831 18.5481 16.0803 18.6994C16.1702 18.8393 16.2646 18.9765 16.3589 19.1137L16.3589 19.1137C16.4493 19.2452 16.5397 19.3766 16.6262 19.5105C16.7092 19.6381 16.7843 19.6546 16.91 19.5657C17.4224 19.2051 17.9375 18.849 18.4553 18.4974C18.5886 18.4066 18.6232 18.324 18.5192 18.1799C18.4154 18.037 18.3181 17.8886 18.2208 17.7401L18.2207 17.74C18.1391 17.6156 18.0574 17.491 17.9718 17.3695C17.8715 17.2276 17.8528 17.1068 17.9718 16.9664C18.0488 16.8694 18.1142 16.7637 18.1666 16.6515C18.2417 16.5013 18.342 16.4469 18.5147 16.4863C18.7021 16.5289 18.8917 16.5626 19.0815 16.5964C19.1996 16.6174 19.3178 16.6384 19.4356 16.6616C19.6049 16.695 19.7007 16.6616 19.7318 16.4631C19.7978 16.0488 19.8736 15.6363 19.9494 15.2238L19.9495 15.223C19.9772 15.0722 20.005 14.9215 20.0322 14.7706C20.0425 14.7344 20.0561 14.6992 20.0727 14.6655V14.4302C20.0486 14.419 20.0247 14.4064 20.0008 14.3937L20.0007 14.3937C19.9455 14.3646 19.89 14.3352 19.8306 14.3232ZM14.6871 16.8677C13.4215 16.8726 12.3875 15.8403 12.3826 14.5683C12.3781 13.2741 13.3963 12.2287 14.6638 12.2246C15.9313 12.2205 16.9705 13.2726 16.9641 14.5552C16.96 15.822 15.935 16.8624 14.6886 16.8677H14.6871ZM14.7204 12.7463C13.736 12.734 12.9126 13.5368 12.9036 14.5172C12.895 15.504 13.6894 16.3411 14.6419 16.3478C15.1139 16.3489 15.5672 16.1632 15.9027 15.8312C16.2382 15.4993 16.4286 15.0481 16.4324 14.5762C16.4436 13.5871 15.6672 12.7584 14.7204 12.7463Z" fill="currentColor"/>
    </svg>

  </g>

  <g id='dispute'>
    <svg width="23" height="20" viewBox="0 0 23 20" fill="none" xmlns="http://www.w3.org/2000/svg">
      <path d="M22.1439 9.69486C21.9848 9.62012 21.9176 9.49259 21.8488 9.35131C20.8214 7.27951 19.794 5.20826 18.7666 3.13755C18.4954 2.59108 18.4954 2.59108 17.8895 2.62681C17.8681 2.62681 17.8465 2.62681 17.8239 2.62681C16.4795 2.62681 15.1351 2.62419 13.7908 2.63009C13.6501 2.63009 13.594 2.57993 13.5511 2.45438C13.3963 1.99768 13.1025 1.6008 12.7109 1.31931C12.3193 1.03781 11.8495 0.885794 11.3672 0.884529C10.8848 0.883265 10.4142 1.03282 10.0211 1.31226C9.62804 1.59169 9.3322 1.98702 9.17502 2.44291C9.12157 2.59632 9.04714 2.63009 8.89992 2.62943C7.57687 2.62484 6.25382 2.62681 4.93044 2.62648C4.87339 2.62775 4.81632 2.62523 4.7596 2.61894C4.31465 2.55928 4.21891 2.60944 4.01955 3.01232C2.95979 5.14684 1.89895 7.28071 0.837009 9.41392C0.787497 9.51226 0.69372 9.59979 0.60191 9.66699C0.450423 9.77779 0.374023 9.91253 0.374023 10.1004C0.374023 10.8314 0.597648 11.4913 1.01243 12.0866C2.35417 14.0135 5.22784 14.4528 7.17323 13.0192C8.14707 12.3017 8.71433 11.3513 8.7422 10.1151C8.74679 9.91843 8.6622 9.77779 8.50317 9.6647C8.41656 9.6079 8.34465 9.53139 8.29331 9.44146C7.35663 7.57268 6.42334 5.70216 5.49343 3.8299C5.46359 3.76991 5.43802 3.70762 5.40031 3.62436C6.61515 3.62436 7.79393 3.62239 8.97435 3.63124C9.02616 3.63124 9.10354 3.72336 9.12387 3.78695C9.36913 4.55601 9.87245 5.07003 10.6322 5.33589C10.704 5.36113 10.7771 5.38375 10.8456 5.40604V14.0447C10.7686 14.0627 10.7004 14.0801 10.6315 14.0951C10.5551 14.1119 10.4764 14.121 10.402 14.1433C9.13994 14.519 8.20511 15.2412 7.82672 16.5613C7.81033 16.6177 7.71491 16.6859 7.65326 16.6891C7.368 16.7029 7.08142 16.6891 6.79582 16.697C6.40465 16.7072 6.17283 16.9455 6.17053 17.3333C6.16791 17.9269 6.16791 18.5203 6.17053 19.1137C6.17053 19.4687 6.37186 19.6683 6.73221 19.6683C9.82163 19.6696 12.9113 19.6696 16.0011 19.6683C16.3444 19.6683 16.5474 19.4631 16.5487 19.1215C16.5513 18.5282 16.5513 17.9347 16.5487 17.3412C16.5487 16.9412 16.3136 16.7059 15.9093 16.6964C15.688 16.6911 15.4644 16.6783 15.2447 16.6996C15.0076 16.7229 14.9115 16.6492 14.8381 16.4072C14.5272 15.3874 13.8029 14.7354 12.8497 14.3256C12.5399 14.1922 12.2025 14.1217 11.8782 14.0224V5.39883C12.8166 5.14477 13.3927 4.54913 13.64 3.63353H17.3078C17.2868 3.68697 17.275 3.72663 17.2563 3.76466C16.3065 5.67386 15.3556 7.58274 14.4036 9.49128C14.3661 9.55715 14.3116 9.6118 14.2459 9.64962C14.0649 9.76042 13.9764 9.91187 13.9783 10.1269C13.9852 10.937 14.2426 11.6657 14.7653 12.2761C15.9726 13.6909 17.5222 14.1427 19.3014 13.7129C20.7716 13.3579 21.7891 12.4515 22.2337 10.9684C22.2806 10.8124 22.3111 10.6514 22.3491 10.4931V9.93318C22.2803 9.85188 22.2288 9.73649 22.1439 9.69486ZM7.25455 9.53521H1.86266C2.75748 7.73681 3.64214 5.96005 4.54614 4.14427C5.45736 5.95841 6.3489 7.73255 7.25455 9.53521ZM13.8839 16.6764H8.84286C9.01239 15.7195 10.0538 15.0094 11.3132 14.9816C12.5776 14.9534 13.6586 15.6595 13.8839 16.6764ZM11.3516 4.4816C11.0893 4.47959 10.8334 4.40005 10.6162 4.25299C10.399 4.10592 10.2301 3.89791 10.1309 3.65513C10.0317 3.41235 10.0065 3.14565 10.0586 2.8886C10.1106 2.63154 10.2376 2.39563 10.4234 2.21054C10.6093 2.02546 10.8457 1.89947 11.1031 1.84845C11.3604 1.79742 11.627 1.82363 11.8695 1.92378C12.1119 2.02393 12.3193 2.19355 12.4656 2.41128C12.6118 2.62901 12.6904 2.88512 12.6914 3.14738C12.692 3.87677 12.0798 4.48717 11.3516 4.48028V4.4816ZM18.1737 4.14493C19.0768 5.95808 19.9594 7.73091 20.8536 9.52701H15.4716C16.3667 7.74271 17.2586 5.9666 18.1737 4.14362V4.14493Z" fill="currentColor"/>
    </svg>

  </g>

  <g id='notification'>
    <svg width="18" height="18" viewBox="0 0 18 18" fill="none" xmlns="http://www.w3.org/2000/svg">
      <path d="M11.3527 2.95875C10.8698 2.67825 10.572 2.15625 10.5728 1.59375V1.5915C10.5728 0.7125 9.8685 0 9 0C8.1315 0 7.42725 0.7125 7.42725 1.5915V1.59375C7.428 2.157 7.13025 2.67825 6.6465 2.95875C3.14625 4.99275 5.15775 11.745 1.5 12.9382V14.25H16.5V12.9382C12.8422 11.745 14.8538 4.99275 11.3527 2.95875ZM6.30675 12H4.89525C5.829 9.94425 5.5545 5.241 7.8 4.00875C6.47925 5.559 7.0875 9.63675 6.30675 12ZM9 2.25C8.586 2.25 8.25 1.914 8.25 1.5C8.25 1.08675 8.586 0.75 9 0.75C9.414 0.75 9.75 1.08675 9.75 1.5C9.75 1.914 9.414 2.25 9 2.25ZM6.75 15.75H11.25C11.25 16.9485 10.2052 18 9.02175 18C7.8375 18 6.75 16.9485 6.75 15.75Z" fill="currentColor"/>
    </svg>
  </g>

  <g id='logout'>
    <svg width="18" height="18" viewBox="0 0 18 18" fill="none" xmlns="http://www.w3.org/2000/svg">
      <path d="M6 11.25V14.25L0 9L6 3.75V6.75L12 6.75V11.25L6 11.25ZM7.5 3.75V3.81225C8.3835 3.2985 9.4065 3 10.5 3C13.8082 3 16.5 5.69175 16.5 9C16.5 12.3082 13.8082 15 10.5 15C9.4065 15 8.3835 14.7015 7.5 14.1877V15.8715C8.4195 16.2735 9.43275 16.5 10.5 16.5C14.6415 16.5 18 13.1422 18 9C18 4.85775 14.6415 1.5 10.5 1.5C9.43275 1.5 8.4195 1.7265 7.5 2.1285V3.75Z" fill="#0057B7"/>
    </svg>

  </g>

  <g id=''></g>
</svg>
